# xmcd CD database file
#
# Track frame offsets:
#	150
#	47780
#	81885
#	96615
#	145110
#	198300
#
# Disc length: 3418 seconds
#
# Revision: 0
# Processed by: cddbd v1.5.1PL0 Copyright (c) Steve Scherf et al.
# Submitted via: CDex 1.51
#
DISCID=510d5806
DTITLE=Frode Gjerstad Trio - St. Louis
DYEAR=2002
DGENRE=Jazz
TTITLE0=St. Louis (Part 1)
TTITLE1=St. Louis (Part 2)
TTITLE2=St. Louis (Part 3)
TTITLE3=St. Louis (Part 4)
TTITLE4=St. Louis (Part 5)
TTITLE5=St. Louis (Part 6)
EXTD=YEAR: 2002
EXTT0=
EXTT1=
EXTT2=
EXTT3=
EXTT4=
EXTT5=
PLAYORDER=
